<svg xmlns="http://www.w3.org/2000/svg" width="105" height="53" viewbox="0 0 105 53"><path fill="#fefefe" d="M64.9.3c1.7 0 3.1 1.4 3.1 3.1s-1.4 3.1-3.1 3.1c-1.7 0-3.1-1.4-3.1-3.1s1.4-3.1 3.1-3.1zm-2.7 8.7h5.4v17.5h-5.4v-17.5z"/><path fill="#fefefe" d="M82 13.7c-.5-.8-1.6-1.3-2.7-1.3-2.7 0-4.3 1.8-4.3 4.4 0 2.6 1.6 4.4 4.3 4.4 1.2 0 2.1-.6 2.7-1.3l3.6 3.8c-1.7 1.7-4.2 2.3-6.2 2.3-5.4 0-9.7-3.6-9.7-9.2s4.3-9.2 9.7-9.2c2.1 0 4.5.6 6.2 2.3l-3.6 3.8z"/><path fill="#fefefe" d="M98.4 13.7c-.5-.8-1.6-1.3-2.7-1.3-2.7 0-4.3 1.8-4.3 4.4 0 2.6 1.6 4.4 4.3 4.4 1.2 0 2.1-.6 2.7-1.3l3.6 3.8c-1.7 1.7-4.2 2.3-6.2 2.3-5.4 0-9.7-3.6-9.7-9.2s4.3-9.2 9.7-9.2c2.1 0 4.5.6 6.2 2.3l-3.6 3.8z"/><path fill="#fefefe" d="M13.5 13.4h-4.7v5.8c0 1.9.2 3.2 2.5 3.2.6 0 1.7-.1 2.2-.5v4.5c-1.2.4-2.5.5-3.8.5-3.6 0-6.3-1.5-6.3-5.3v-8.3h-3.4v-4.2h3.4v-5.2h5.4v5.2h4.7v4.3z"/><path fill="#fefefe" d="M21 0v11.5h.1c.5-1.4 2.3-2.8 4.9-2.8 5.4 0 6.4 3.6 6.4 8.2v9.6h-5.4v-8.5c0-2 0-4.6-2.8-4.6s-3.2 2.2-3.2 4.4v8.7h-5.4v-26.5h5.4z"/><path fill="#fefefe" d="M46.7 14.8c0-1.8-1.4-3.3-3.3-3.3-2.4 0-3.7 1.6-3.8 3.3h7.1zm4.5 7.7c-1.7 2.2-4.5 3.4-7.3 3.4-5.4 0-9.7-3.6-9.7-9.1s4.3-9.1 9.7-9.1c5 0 8.2 3.6 8.2 9.1v1.7h-12.5c.4 2 2 3.4 4 3.4 1.8 0 2.9-.9 3.8-2.1l3.8 2.7z"/><path fill="#fefefe" d="M8.3 46.3c1.4 0 2.2-.9 2.2-2.3s-.8-2.3-2.2-2.3c-1.4 0-2.3.9-2.3 2.3 0 1.3.9 2.3 2.3 2.3zm-4.9-11.9h2.8v6c.6-.9 1.7-1.2 2.9-1.2 2.6 0 4.1 2.3 4.1 4.8 0 2.7-1.8 4.7-4.5 4.7-1.3 0-2.4-.8-2.8-1.4v1.2h-2.5v-14.1z"/><path fill="#fefefe" d="M15.6 35c.9 0 1.6.7 1.6 1.6 0 .9-.7 1.6-1.6 1.6-.9 0-1.6-.7-1.6-1.6 0-.9.7-1.6 1.6-1.6zm-1.4 4.4h2.8v9.1h-2.8v-9.1z"/><path fill="#fefefe" d="M18.7 39.4h2.8v1.5c.6-1.1 1.4-1.7 2.6-1.7.3 0 .7 0 .9.1v2.6c-.4-.1-.8-.2-1.2-.2-2.1 0-2.4 1.2-2.4 3v3.8h-2.8v-9.1z"/><path fill="#fefefe" d="M25.9 39.4h2.7v1.2c.4-.7 1.3-1.5 2.6-1.5s2.3.5 2.8 1.6c.7-1.2 1.5-1.6 2.9-1.6 2.5 0 3.2 1.7 3.2 3.9v5.4h-2.8v-5.3c0-.8-.3-1.5-1.2-1.5-1.3 0-1.7.9-1.7 2v4.8h-2.8v-4.8c0-.7 0-2-1.2-2-1.5 0-1.7 1.1-1.7 2.3v4.5h-2.8v-9z"/><path fill="#fefefe" d="M43.2 35c.9 0 1.6.7 1.6 1.6 0 .9-.7 1.6-1.6 1.6-.9 0-1.6-.7-1.6-1.6 0-.9.7-1.6 1.6-1.6zm-1.4 4.4h2.8v9.1h-2.8v-9.1z"/><path fill="#fefefe" d="M46.2 39.4h2.7v1.2c.4-.7 1.3-1.5 2.7-1.5 2.8 0 3.4 1.9 3.4 4.3v5h-2.8v-4.4c0-1 0-2.4-1.5-2.4s-1.7 1.1-1.7 2.3v4.5h-2.8v-9z"/><path fill="#fefefe" d="M61.3 46.2c1.3 0 2.2-1.1 2.2-2.2 0-1.2-1-2.2-2.2-2.2-1.3 0-2.2 1.1-2.2 2.2-.1 1.1.9 2.2 2.2 2.2zm4.8 1.6c0 3.4-1.7 5.2-5.2 5.2-1.6 0-3.2-.3-4.6-1.3l1.5-2.3c.9.7 1.8 1.2 2.9 1.2 1.7 0 2.5-.9 2.5-2.2v-.9c-.6.9-1.7 1.2-2.6 1.2-2.7 0-4.5-1.9-4.5-4.7 0-2.4 1.6-4.7 4.1-4.7 1.6 0 2.7.8 3.1 1.4v-1.2h2.6v8.3z"/><path fill="#fefefe" d="M70.5 34.6v6.3c.3-.7 1.2-1.5 2.5-1.5 2.8 0 3.4 1.9 3.4 4.3v5h-2.8v-4.4c0-1 0-2.4-1.5-2.4s-1.7 1.1-1.7 2.3v4.5h-2.8v-14.1h2.9z"/><path fill="#fefefe" d="M83.1 44.5c-.9 0-2.8.1-2.8 1.3 0 .7.7 1 1.3 1 1.1 0 2.1-.6 2.1-1.7v-.6h-.6zm.7 2.9c-.7 1-1.8 1.4-2.9 1.4-1.7 0-3.2-1-3.2-2.8 0-3.1 3.8-3.2 6.1-3.2 0-1-.8-1.6-1.8-1.6-.9 0-1.7.4-2.3 1.1l-1.5-1.5c1-1 2.5-1.5 4-1.5 3.3 0 4.1 1.7 4.1 4.7v4.6h-2.6v-1.2z"/><path fill="#fefefe" d="M87.7 39.4h2.7v1.2c.4-.7 1.3-1.5 2.6-1.5s2.3.5 2.8 1.6c.7-1.2 1.5-1.6 2.9-1.6 2.5 0 3.2 1.7 3.2 3.9v5.4h-2.8v-5.3c0-.8-.3-1.5-1.2-1.5-1.3 0-1.7.9-1.7 2v4.8h-2.8v-4.8c0-.7 0-2-1.3-2-1.5 0-1.7 1.1-1.7 2.3v4.5h-2.8v-9z"/></svg>