
<svg id="Layer_1" xmlns="http://www.w3.org/2000/svg" width="186" height="80.6" viewBox="0 0 186 80.6"><style>.st0{fill:#F1F2F2;}</style><path class="st0" d="M16.1 15.4h14.6v6.7h.2c2-3.8 7-7.9 14.4-7.9 15.4 0 18.2 10.1 18.2 23.3v27.1H48.3V40.5c0-5.7-.1-13-7.9-13-7.9 0-9.1 6.2-9.1 12.6v24.5H16.1V15.4zM105.3 34.4c.1-5.1-3.8-9.3-9.3-9.3-6.7 0-10.3 4.6-10.7 9.3h20zm12.8 21.7c-4.9 6.2-12.9 9.7-20.8 9.7C82.2 65.8 70 55.7 70 40c0-15.7 12.1-25.8 27.3-25.8 14.2 0 23.1 10.1 23.1 25.8v4.8H85.2c1.2 5.8 5.6 9.5 11.4 9.5 5 0 8.3-2.5 10.8-6l10.7 7.8zM161.3 31.3c-1.5-2.1-4.3-3.7-7.5-3.7-7.6 0-12.1 5.1-12.1 12.4 0 7.4 4.6 12.5 12.1 12.5 3.3 0 5.8-1.7 7.5-3.7l10 10.5c-4.8 4.9-11.7 6.6-17.5 6.6-15.2 0-27.3-10.1-27.3-25.8 0-15.7 12.1-25.8 27.3-25.8 5.8 0 12.8 1.7 17.5 6.6l-10 10.4z"/></svg>