<svg xmlns="http://www.w3.org/2000/svg" width="126" height="70.25" viewBox="0 0 126 70.25"><defs><style>.a{fill:#fefefe;}</style></defs><title>footer-logo-vox</title><path class="a" d="M62.95 21.37l-.2 2.95-.78-2.85.98-.1M60.03 25.45l2.12 1.39-2.48-.47.36-.92M64.7 29.39l-1.15-1.72 1.81.99-.66.73M70.68 26.86l-3.62-.11 3.51-.87.11.98M68.66 22.33l-2.88 2.15 2.18-2.86.7.71M53.51 20.06l2.19 2.17-2.77-1.37.58-.8M57.09 18.22l2.61 4.41-3.41-3.83.8-.58M59.15 31.85l2.38-2.58-1.57 3.15-.81-.57M52.69 23.25l4.58 2.04-4.9-1.11.32-.93M52.09 30.88l5.96-1.55-5.64 2.48-.32-.93M75.36 22.56l-7.07 2.41 6.69-3.33.38.92M73.75 26.93l9.44-.83.04.99-9.48-.16M80.31 22.52l-2.84.34 2.56-1.29.28.95M88.32 23.84l-11.58 1.29 11.43-2.27.15.98M76.98 30.12l-5.58-1.43 5.75.45-.17.98M73.23 32.58l-5.13-2.97 5.56 2.08-.43.89M78.31 35.5l-2.64-1.91 3.09 1.03-.45.88M88.93 28.16l-3.34-.55 3.36-.45-.02 1M69.56 36.95l-2.89-4.77 3.69 4.19-.8.58M64.75 38.27l-.68-5.89 1.65 5.7-.97.19M60.66 37.74l1.79-7.58-.82 7.75-.97-.17M53.86 35.46l3.25-2.47-2.56 3.18-.69-.71M45.33 30.52l4.7-.49-4.49 1.45-.21-.96M39.05 29.31l4.39.03-4.28.96-.11-.99M39.22 35.57l7.96-2.44-7.62 3.37-.34-.93M47.4 26.69l9.57.55-9.58.44.01-.99M63.95 11.99l-.69 6.89-.3-6.92.99.03M59 7.53l1.49 8.97-2.46-8.76.97-.21M57.13 12.56l1.94 5.8-2.84-5.41.9-.39M52.5 14.18l1.88 2.93-2.63-2.29.75-.64M45.7 15.13l4.36 3.38-4.89-2.54.53-.84M46.12 21.61l4.08 1.74-4.37-.79.29-.95M40.18 15.88l10.28 5.39-10.7-4.49.42-.9M56.71 2.21l.42 3.28-1.37-3 .95-.28M50.29 5.24l3.97 7.52-4.81-7.01.84-.51M54.26 41.63l4.23-6.45-3.37 6.94-.86-.49M45.43 43.01l6.47-5.4-5.8 6.12-.67-.72M58.87 43.59l1.32-3.63-.35 3.84-.97-.21M73.77 42.6l-2.16-3.77 2.96 3.18-.8.59M83.34 43.73L69.68 32.4l14.27 10.55-.61.78M80.72 46.55l-8.23-9.39 8.95 8.71-.72.68M44.68 10l7.3 7.24-7.96-6.5.66-.74M67.83 6.6l-2.18 8.01 1.21-8.21.97.2M75.99 14.11l-5.18 4.78 4.46-5.46.72.68M74.67 10.11l-5.72 7.86 4.89-8.4.83.54M80.03 7.16l-3.77 3.81 3.01-4.44.76.63M81.11 14.16l-9.98 6.95 9.38-7.73.6.78M85.62 17.57l-7.82 3.04 7.41-3.94.41.9M85.82 14.11l-7.11 3.68 6.6-4.53.51.85M61.14 1.15l.21 8.3-1.2-8.22.99-.08M37.37 32.58l5.1-.65-4.88 1.62-.22-.97M36.75 26.35l7.22.54-7.23.45.01-.99M38.63 23.07l12.16 2.31-12.31-1.33.15-.98M38.09 19.34l5.39 2.1-5.67-1.15.28-.95M41.57 12.19l2.3 2.13-2.85-1.31.55-.82M46.31 37.16l8.54-4.81-8.01 5.64-.53-.83M46.01 47.18l7.87-8.83-7.11 9.46-.76-.63M49.91 48.29l3.37-4.7-2.52 5.2-.85-.5M53.05 51.43l6.3-14.81-5.38 15.17-.92-.36M46.52 6.77l3.77 5.26-4.52-4.62.75-.64M39.59 39.09l4.46-1.81-3.99 2.68-.47-.87M63.67 53.37l-.06-12.72 1.05 12.67-.99.05M52.7 2.92l2.51 6.81-3.41-6.41.9-.4M65.72 1.11l-1.18 8.15.2-8.23.98.08M41.49 42.36l4.16-2.43-3.57 3.23-.59-.8M56.78 51.5l1.58-4.4-.62 4.63-.96-.23M59.81 53.18l1.71-11.6-.73 11.71-.98-.11M65.86 42.28l2.2 9.08-.97.18-1.23-9.26M70.81 52.23l-.83-4.07 1.76 3.76-.93.31M69.74 39.35l6.39 10.56-.87.47-5.52-11.03M77.09 47.66l-1.74-3.27 2.54 2.7-.8.57M79.52 37.16l3.69 1.65-.51.85-3.18-2.5M87.07 34.87l-8.79-3.14 9.07 2.19-.28.95M88.86 31.72l-8.29-1.81 8.45.84-.16.97M81.5 35.44l5.71 2.01-.4.9-5.31-2.91M73.08 4.65l-2.17 3.87 1.26-4.26.91.39M76.93 4.89l-2.17 2.66 1.32-3.17.85.51M68.81 4.49l.24-2.84.95.25-1.19 2.59M88.26 20.22l-5.95 1.25 5.67-2.2.28.95M69.98 10.91l-4.36 9.54 3.44-9.91.92.37M69.57 45.72l-1.93-6.45 2.85 6.1-.92.35M82.72 9.98l-2.45 1.56 1.78-2.29.67.73M11.17 15.63l4 10.6m0 0l2.66 7.14 9.14-24.65a4.43 4.43 0 0 1 8.6 1.36 5.65 5.65 0 0 1-.42 2.21l-13 33c-.77 1.9-1.78 3.44-4.39 3.44s-3.59-1.55-4.37-3.44l-13-33A5.62 5.62 0 0 1 0 10.08a4.43 4.43 0 0 1 8.59-1.36l2.58 6.91M124.99 41.55l-10.63-14.26L125 13.01a5.4 5.4 0 0 0 1-3c0-2.49-1.9-4.15-4.5-4.15a4.29 4.29 0 0 0-3.67 2l-9.74 13.43-9.71-13.52a4.31 4.31 0 0 0-3.68-2c-2.61 0-4.5 1.66-4.5 4.15a5.42 5.42 0 0 0 1 3l10.64 14.37L91.2 41.55a5.39 5.39 0 0 0-1 3c0 2.49 1.9 4.15 4.5 4.15a4.29 4.29 0 0 0 3.68-2l9.72-13.41 9.72 13.52a4.3 4.3 0 0 0 3.68 2c2.61 0 4.5-1.66 4.5-4.15a5.41 5.41 0 0 0-1-3"/><path class="a" d="M65.72 29.8a1.07 1.07 0 1 1 0-1.51 1.07 1.07 0 0 1 0 1.51M60.28 32.91a1.07 1.07 0 1 1 0-1.51 1.07 1.07 0 0 1 0 1.51M65.96 38.95a1.07 1.07 0 1 1 0-1.51 1.07 1.07 0 0 1 0 1.51M61.88 38.6a1.07 1.07 0 1 1 0-1.51 1.07 1.07 0 0 1 0 1.51M68.31 52.23a1.07 1.07 0 1 1 0-1.51 1.07 1.07 0 0 1 0 1.51M72 52.85a1.07 1.07 0 1 1 0-1.51 1.07 1.07 0 0 1 0 1.51M64.89 54.12a1.07 1.07 0 1 1 0-1.51 1.07 1.07 0 0 1 0 1.51M61.03 54.01a1.07 1.07 0 1 1 0-1.51 1.07 1.07 0 0 1 0 1.51M58 52.4a1.07 1.07 0 1 1 0-1.51 1.07 1.07 0 0 1 0 1.51M54.24 52.39a1.07 1.07 0 1 1 0-1.51 1.07 1.07 0 0 1 0 1.51M51.02 49.36a1.07 1.07 0 1 1 .13-1.5 1.07 1.07 0 0 1-.13 1.5M60.08 44.48a1.07 1.07 0 1 1 0-1.51 1.07 1.07 0 0 1 0 1.51M55.42 42.66a1.07 1.07 0 1 1 0-1.51 1.07 1.07 0 0 1 0 1.51M46.5 44.15a1.07 1.07 0 1 1 0-1.51 1.07 1.07 0 0 1 0 1.51M54.94 36.6a1.07 1.07 0 1 1 0-1.51 1.07 1.07 0 0 1 0 1.51M52.98 32.12a1.07 1.07 0 1 1 0-1.51 1.07 1.07 0 0 1 0 1.51M46.17 31.78a1.07 1.07 0 1 1 0-1.51 1.07 1.07 0 0 1 0 1.51M40.12 36.81a1.07 1.07 0 1 1 0-1.51 1.07 1.07 0 0 1 0 1.51M40.56 40.29a1.07 1.07 0 1 1 0-1.51 1.07 1.07 0 0 1 0 1.51M47.3 38.36a1.07 1.07 0 1 1 0-1.51 1.07 1.07 0 0 1 0 1.51M42.52 43.54a1.07 1.07 0 1 1 0-1.51 1.07 1.07 0 0 1 0 1.51M47.12 48.29a1.07 1.07 0 1 1 0-1.51 1.07 1.07 0 0 1 0 1.51M38.22 33.84a1.07 1.07 0 1 1 0-1.51 1.07 1.07 0 0 1 0 1.51M39.83 30.58a1.07 1.07 0 1 1 0-1.51 1.07 1.07 0 0 1 0 1.51M37.48 27.62a1.07 1.07 0 1 1 0-1.51 1.07 1.07 0 0 1 0 1.51M39.29 24.34a1.07 1.07 0 1 1 0-1.51 1.07 1.07 0 0 1 0 1.51M48.12 27.97a1.07 1.07 0 1 1 0-1.51 1.07 1.07 0 0 1 0 1.51M46.72 22.86a1.07 1.07 0 1 1 0-1.51 1.07 1.07 0 0 1 0 1.51M40.72 17.11a1.07 1.07 0 1 1 0-1.51 1.07 1.07 0 0 1 0 1.51M38.63 20.65a1.07 1.07 0 1 1 0-1.51 1.07 1.07 0 0 1 0 1.51M57.42 19.29a1.07 1.07 0 1 1 0-1.51 1.07 1.07 0 0 1 0 1.51M53.95 21.29a1.07 1.07 0 1 1 0-1.51 1.07 1.07 0 0 1 0 1.51M53.26 24.5a1.07 1.07 0 1 1 0-1.51 1.07 1.07 0 0 1 0 1.51M52.85 15.29a1.07 1.07 0 1 1 0-1.51 1.07 1.07 0 0 1 0 1.51M57.41 13.54a1.07 1.07 0 1 1 0-1.51 1.07 1.07 0 0 1 0 1.51M63.19 22.2a1.07 1.07 0 1 1 0-1.51 1.07 1.07 0 0 1 0 1.51M60.58 26.69a1.07 1.07 0 1 1 0-1.51 1.07 1.07 0 0 1 0 1.51M69.04 22.76a1.07 1.07 0 1 1 0-1.51 1.07 1.07 0 0 1 0 1.51M71.36 27.15a1.07 1.07 0 1 1 0-1.51 1.07 1.07 0 0 1 0 1.51M83.94 27.37a1.07 1.07 0 1 1 0-1.51 1.07 1.07 0 0 1 0 1.51M75.9 22.88a1.07 1.07 0 1 1 0-1.51 1.07 1.07 0 0 1 0 1.51M74.18 32.91a1.07 1.07 0 1 1 0-1.51 1.07 1.07 0 0 1 0 1.51M70.72 37.44a1.07 1.07 0 1 1 0-1.51 1.07 1.07 0 0 1 0 1.51M74.9 43.08a1.07 1.07 0 1 1 0-1.51 1.07 1.07 0 0 1 0 1.51M70.58 46.47a1.07 1.07 0 1 1 .36-1.47 1.07 1.07 0 0 1-.36 1.47M76.43 50.92a1.07 1.07 0 1 1 0-1.51 1.07 1.07 0 0 1 0 1.51M78.22 48.15a1.07 1.07 0 1 1 0-1.51 1.07 1.07 0 0 1 0 1.51M41.97 13.43a1.07 1.07 0 1 1 0-1.51 1.07 1.07 0 0 1 0 1.51M45.03 11.2a1.07 1.07 0 1 1 0-1.51 1.07 1.07 0 0 1 0 1.51M46.17 16.29a1.07 1.07 0 1 1 0-1.51 1.07 1.07 0 0 1 0 1.51M50.6 6.29a1.07 1.07 0 1 1 0-1.51 1.07 1.07 0 0 1 0 1.51M52.98 3.9a1.07 1.07 0 1 1 0-1.51 1.07 1.07 0 0 1 0 1.51M59.25 8.41a1.07 1.07 0 1 1 0-1.51 1.07 1.07 0 0 1 0 1.51M61.37 1.97a1.07 1.07 0 1 1 0-1.51 1.07 1.07 0 0 1 0 1.51M56.96 3.13a1.07 1.07 0 1 1 0-1.51 1.07 1.07 0 0 1 0 1.51M82.02 10.62a1.07 1.07 0 1 1 1.37-.64 1.07 1.07 0 0 1-1.37.64M65.96 1.85a1.07 1.07 0 1 1 0-1.51 1.07 1.07 0 0 1 0 1.51M70.25 2.55a1.07 1.07 0 1 1 0-1.51 1.07 1.07 0 0 1 0 1.51M73.36 5.21a1.07 1.07 0 1 1 0-1.51 1.07 1.07 0 0 1 0 1.51M68.07 7.29a1.07 1.07 0 1 1 0-1.51 1.07 1.07 0 0 1 0 1.51M70.25 11.51a1.07 1.07 0 1 1 0-1.51 1.07 1.07 0 0 1 0 1.51M74.99 10.62a1.07 1.07 0 1 1 0-1.51 1.07 1.07 0 0 1 0 1.51M77.23 5.42a1.07 1.07 0 1 1 0-1.51 1.07 1.07 0 0 1 0 1.51M80.38 7.62a1.07 1.07 0 1 1 0-1.51 1.07 1.07 0 0 1 0 1.51M76.36 14.55a1.07 1.07 0 1 1 0-1.51 1.07 1.07 0 0 1 0 1.51M81.54 14.55a1.07 1.07 0 1 1 0-1.51 1.07 1.07 0 0 1 0 1.51M86.3 14.47a1.07 1.07 0 1 1 0-1.51 1.07 1.07 0 0 1 0 1.51M86.15 17.9a1.07 1.07 0 1 1 0-1.51 1.07 1.07 0 0 1 0 1.51M80.9 22.82a1.07 1.07 0 1 1 0-1.51 1.07 1.07 0 0 1 0 1.51M88.85 20.52a1.07 1.07 0 1 1 0-1.51 1.07 1.07 0 0 1 0 1.51M89.72 28.44a1.07 1.07 0 1 1 0-1.51 1.07 1.07 0 0 1 0 1.51M88.97 24.13a1.07 1.07 0 1 1 0-1.51 1.07 1.07 0 0 1 0 1.51M89.72 32.01a1.07 1.07 0 1 1 0-1.51 1.07 1.07 0 0 1 0 1.51M87.53 34.95a1.07 1.07 0 1 1 0-1.51 1.07 1.07 0 0 1 0 1.51M87.72 38.68a1.07 1.07 0 1 1 0-1.51 1.07 1.07 0 0 1 0 1.51M83.72 40.02a1.07 1.07 0 1 1 0-1.51 1.07 1.07 0 0 1 0 1.51M84.38 44.12a1.07 1.07 0 1 1 0-1.51 1.07 1.07 0 0 1 0 1.51M81.81 46.99a1.07 1.07 0 1 1 0-1.51 1.07 1.07 0 0 1 0 1.51M46.87 7.87a1.07 1.07 0 1 1 0-1.51 1.07 1.07 0 0 1 0 1.51M79.27 35.84a1.07 1.07 0 1 1 0-1.51 1.07 1.07 0 0 1 0 1.51M77.8 30.39a1.07 1.07 0 1 1 0-1.51 1.07 1.07 0 0 1 0 1.51M64.19 12.76a1.07 1.07 0 1 1 0-1.51 1.07 1.07 0 0 1 0 1.51M84.66 6.81h.16a.27.27 0 0 0 .18-.06.19.19 0 0 0 .07-.15.18.18 0 0 0-.06-.15.33.33 0 0 0-.2 0h-.15v.36zm.62-.22a.35.35 0 0 1-.06.2.36.36 0 0 1-.17.13l.34.57h-.24l-.3-.51h-.19v.51h-.22V6.21h.38a.53.53 0 0 1 .35.09.35.35 0 0 1 .11.28m-1.36.26a.93.93 0 0 0 1.39.8.94.94 0 0 0 .33-.35.92.92 0 0 0 0-.93.93.93 0 0 0-.34-.34.92.92 0 0 0-.93 0 .93.93 0 0 0-.34.34.89.89 0 0 0-.13.46m-.18.03a1.06 1.06 0 0 1 .19-.56 1.08 1.08 0 0 1 .93-.54 1.06 1.06 0 0 1 .54.14 1.07 1.07 0 0 1 .54.93 1.08 1.08 0 0 1-.14.53 1.07 1.07 0 0 1-.39.4 1.08 1.08 0 0 1-1.49-.4 1.06 1.06 0 0 1-.18-.5M14.72 66.94a3 3 0 0 0 .78-.14v.7a2.52 2.52 0 0 1-.46.13 2.31 2.31 0 0 1-.44.05 1.51 1.51 0 0 1-1-.32 1.23 1.23 0 0 1-.36-1 4 4 0 0 1 .1-.82l.68-3.25h-.94l.08-.4 1-.42.68-1.24h.53l-.3 1.37h1.49l-.13.69h-1.48l-.7 3.29a3.86 3.86 0 0 0-.1.72.65.65 0 0 0 .16.47.59.59 0 0 0 .41.17zM20.03 67.57l.81-3.77a4.48 4.48 0 0 0 .1-.74.71.71 0 0 0-.8-.81 1.63 1.63 0 0 0-.94.32 2.82 2.82 0 0 0-.81.93 5 5 0 0 0-.53 1.48l-.55 2.58h-.93l1.8-8.47h.92l-.19.87-.19.86q-.1.43-.21.91t-.26 1h.06a3.63 3.63 0 0 1 1-1 2.05 2.05 0 0 1 1-.29 1.48 1.48 0 0 1 1.1.39 1.51 1.51 0 0 1 .39 1.11 4.42 4.42 0 0 1-.13.9q-.21 1.05-.79 3.66h-.85zM24.93 67.68a2.08 2.08 0 0 1-1.57-.59 2.27 2.27 0 0 1-.57-1.64 4.9 4.9 0 0 1 .41-2 3.63 3.63 0 0 1 1.08-1.46 2.34 2.34 0 0 1 1.44-.49 1.87 1.87 0 0 1 1.25.36 1.26 1.26 0 0 1 .42 1 1.73 1.73 0 0 1-.9 1.54 5 5 0 0 1-2.59.56h-.18v.44a1.68 1.68 0 0 0 .33 1.11 1.28 1.28 0 0 0 1 .4 2.7 2.7 0 0 0 .71-.1 5.39 5.39 0 0 0 .9-.36v.84a5 5 0 0 1-.9.34 3.7 3.7 0 0 1-.83.05zm.79-5.39a1.45 1.45 0 0 0-1.05.51 3.35 3.35 0 0 0-.75 1.42h.07a4.45 4.45 0 0 0 1.9-.32 1 1 0 0 0 .66-.94.64.64 0 0 0-.2-.48.87.87 0 0 0-.63-.19zM33.18 67.68a2 2 0 0 1-2.22-2.23 5 5 0 0 1 .4-2 3.41 3.41 0 0 1 1.11-1.43 2.66 2.66 0 0 1 1.6-.52 4 4 0 0 1 1.46.28l-.26.77a3.08 3.08 0 0 0-1.18-.26 1.71 1.71 0 0 0-1.11.42 2.75 2.75 0 0 0-.79 1.16 4.46 4.46 0 0 0-.29 1.61 1.52 1.52 0 0 0 .36 1.08 1.3 1.3 0 0 0 1 .39 2.48 2.48 0 0 0 .74-.11 6.84 6.84 0 0 0 .72-.28v.78a3.27 3.27 0 0 1-1.54.34zM38.56 61.53a2.18 2.18 0 0 1 1.63.61 2.31 2.31 0 0 1 .6 1.69 4.83 4.83 0 0 1-.39 1.93 3.34 3.34 0 0 1-1.06 1.4 2.48 2.48 0 0 1-1.51.5 2.17 2.17 0 0 1-1.64-.62 2.32 2.32 0 0 1-.59-1.68 4.82 4.82 0 0 1 .4-1.95 3.31 3.31 0 0 1 1.07-1.4 2.5 2.5 0 0 1 1.49-.48zm1.29 2.17a1.49 1.49 0 0 0-.34-1 1.16 1.16 0 0 0-.93-.41 1.59 1.59 0 0 0-1.06.4 2.59 2.59 0 0 0-.73 1.12 4.66 4.66 0 0 0-.26 1.59 1.61 1.61 0 0 0 .35 1.1 1.26 1.26 0 0 0 1 .39 1.5 1.5 0 0 0 1-.4 2.6 2.6 0 0 0 .71-1.13 5.12 5.12 0 0 0 .25-1.66zM45.05 67.57l.81-3.77a5 5 0 0 0 .11-.78.77.77 0 0 0-.19-.55.81.81 0 0 0-.62-.18 1.61 1.61 0 0 0-.94.33 2.91 2.91 0 0 0-.81.93 4.9 4.9 0 0 0-.53 1.46l-.56 2.56h-.91l1.27-6h.76l-.12 1.14h.05a3.64 3.64 0 0 1 1-.94 2 2 0 0 1 1-.28 1.53 1.53 0 0 1 1.09.38 1.39 1.39 0 0 1 .4 1.06 4.46 4.46 0 0 1-.13 1l-.78 3.66h-.9zM46.72 70.29a1.93 1.93 0 0 1-.68-.11v-.81a1.92 1.92 0 0 0 .61.12.72.72 0 0 0 .64-.34 2.88 2.88 0 0 0 .36-1l1.19-5.86h-1.05l.07-.36 1.12-.36.13-.54a3.23 3.23 0 0 1 .69-1.54 1.77 1.77 0 0 1 1.31-.45 2.8 2.8 0 0 1 .53.06 2.47 2.47 0 0 1 .49.14l-.23.7a2.12 2.12 0 0 0-.75-.16 1 1 0 0 0-.73.26 2.09 2.09 0 0 0-.41 1l-.14.59h1.3l-.13.66h-1.32l-1.26 6a3.12 3.12 0 0 1-.65 1.5 1.51 1.51 0 0 1-1.09.5zM53.14 67.68a2.08 2.08 0 0 1-1.57-.59 2.27 2.27 0 0 1-.57-1.64 4.9 4.9 0 0 1 .41-2 3.63 3.63 0 0 1 1.08-1.46 2.34 2.34 0 0 1 1.48-.52 1.87 1.87 0 0 1 1.25.36 1.26 1.26 0 0 1 .42 1 1.73 1.73 0 0 1-.9 1.54 5 5 0 0 1-2.59.56h-.2v.44a1.68 1.68 0 0 0 .33 1.11 1.28 1.28 0 0 0 1 .4 2.7 2.7 0 0 0 .71-.1 5.39 5.39 0 0 0 .9-.36v.87a5 5 0 0 1-.9.34 3.7 3.7 0 0 1-.85.05zm.75-5.39a1.45 1.45 0 0 0-1.05.51 3.34 3.34 0 0 0-.75 1.42h.07a4.45 4.45 0 0 0 1.9-.32 1 1 0 0 0 .66-.95.64.64 0 0 0-.2-.48.87.87 0 0 0-.63-.18zM59.81 61.5a2.48 2.48 0 0 1 .65.08l-.2.82a2.4 2.4 0 0 0-.54-.11 1.51 1.51 0 0 0-.93.33 2.85 2.85 0 0 0-.76.91 4.62 4.62 0 0 0-.48 1.29l-.58 2.73h-.94l1.27-6h.76l-.12 1.11h.05a5.36 5.36 0 0 1 .65-.74 2 2 0 0 1 .54-.35 1.54 1.54 0 0 1 .63-.07zM62.48 67.68a2.08 2.08 0 0 1-1.57-.59 2.27 2.27 0 0 1-.57-1.64 4.9 4.9 0 0 1 .41-2 3.63 3.63 0 0 1 1.08-1.46 2.35 2.35 0 0 1 1.48-.52 1.87 1.87 0 0 1 1.25.36 1.26 1.26 0 0 1 .42 1 1.73 1.73 0 0 1-.9 1.54 5 5 0 0 1-2.59.56h-.19v.44a1.68 1.68 0 0 0 .33 1.11 1.28 1.28 0 0 0 1 .4 2.7 2.7 0 0 0 .71-.1 5.39 5.39 0 0 0 .9-.36v.87a5 5 0 0 1-.9.34 3.7 3.7 0 0 1-.86.05zm.76-5.39a1.45 1.45 0 0 0-1.05.51 3.34 3.34 0 0 0-.75 1.42h.07a4.45 4.45 0 0 0 1.9-.32 1 1 0 0 0 .66-.94.64.64 0 0 0-.2-.48.87.87 0 0 0-.63-.19zM69.03 67.57l.81-3.77a5 5 0 0 0 .11-.78.78.78 0 0 0-.23-.55.81.81 0 0 0-.59-.18 1.62 1.62 0 0 0-.95.33 2.91 2.91 0 0 0-.81.93 4.88 4.88 0 0 0-.53 1.46l-.55 2.59h-.91l1.27-6h.76l-.12 1.11h.05a3.64 3.64 0 0 1 1-.94 2 2 0 0 1 1-.28 1.53 1.53 0 0 1 1.09.38 1.39 1.39 0 0 1 .4 1.06 4.46 4.46 0 0 1-.12 1l-.78 3.66h-.9zM74.01 67.68a2 2 0 0 1-2.22-2.23 5 5 0 0 1 .4-2 3.41 3.41 0 0 1 1.11-1.43 2.66 2.66 0 0 1 1.6-.52 4 4 0 0 1 1.46.28l-.26.77a3.08 3.08 0 0 0-1.19-.26 1.71 1.71 0 0 0-1.11.42 2.75 2.75 0 0 0-.79 1.16 4.47 4.47 0 0 0-.29 1.59 1.52 1.52 0 0 0 .36 1.08 1.3 1.3 0 0 0 1 .39 2.47 2.47 0 0 0 .74-.11 6.83 6.83 0 0 0 .69-.26v.78a3.27 3.27 0 0 1-1.5.34zM78.58 67.68a2.08 2.08 0 0 1-1.57-.59 2.27 2.27 0 0 1-.57-1.64 4.9 4.9 0 0 1 .41-2 3.63 3.63 0 0 1 1.08-1.46 2.34 2.34 0 0 1 1.48-.52 1.87 1.87 0 0 1 1.25.36 1.26 1.26 0 0 1 .42 1 1.73 1.73 0 0 1-.9 1.54 5 5 0 0 1-2.59.56h-.2v.44a1.68 1.68 0 0 0 .33 1.15 1.28 1.28 0 0 0 1 .4 2.7 2.7 0 0 0 .71-.1 5.39 5.39 0 0 0 .9-.36v.83a5 5 0 0 1-.9.34 3.7 3.7 0 0 1-.85.05zm.76-5.39a1.45 1.45 0 0 0-1.05.51 3.35 3.35 0 0 0-.75 1.42h.07a4.45 4.45 0 0 0 1.9-.32 1 1 0 0 0 .66-.94.64.64 0 0 0-.2-.48.87.87 0 0 0-.63-.19zM86.83 67.68a2 2 0 0 1-2.22-2.23 5 5 0 0 1 .4-2 3.41 3.41 0 0 1 1.11-1.43 2.66 2.66 0 0 1 1.6-.52 4 4 0 0 1 1.46.28l-.26.77a3.09 3.09 0 0 0-1.2-.26 1.71 1.71 0 0 0-1.11.42 2.75 2.75 0 0 0-.79 1.16 4.47 4.47 0 0 0-.29 1.61 1.52 1.52 0 0 0 .36 1.08 1.3 1.3 0 0 0 1 .39 2.48 2.48 0 0 0 .74-.11 6.88 6.88 0 0 0 .69-.26v.78a3.27 3.27 0 0 1-1.49.32zM91.4 67.68a2.08 2.08 0 0 1-1.57-.59 2.27 2.27 0 0 1-.57-1.64 4.9 4.9 0 0 1 .41-2 3.63 3.63 0 0 1 1.05-1.43 2.34 2.34 0 0 1 1.48-.52 1.87 1.87 0 0 1 1.25.36 1.26 1.26 0 0 1 .42 1 1.73 1.73 0 0 1-.9 1.54 5 5 0 0 1-2.59.56h-.17v.44a1.68 1.68 0 0 0 .33 1.11 1.28 1.28 0 0 0 1 .4 2.71 2.71 0 0 0 .71-.1 5.4 5.4 0 0 0 .9-.36v.84a5 5 0 0 1-.9.34 3.69 3.69 0 0 1-.85.05zm.76-5.39a1.45 1.45 0 0 0-1.05.51 3.34 3.34 0 0 0-.75 1.42h.07a4.45 4.45 0 0 0 1.9-.32 1 1 0 0 0 .66-.94.64.64 0 0 0-.2-.48.87.87 0 0 0-.63-.19zM97.94 67.57l.78-3.76a5 5 0 0 0 .11-.78.78.78 0 0 0-.19-.55.81.81 0 0 0-.59-.19 1.61 1.61 0 0 0-.94.33 2.91 2.91 0 0 0-.81.93 4.91 4.91 0 0 0-.58 1.44l-.55 2.59h-.88l1.28-6h.76l-.12 1.11h.05a3.64 3.64 0 0 1 1-.94 2 2 0 0 1 1-.28 1.53 1.53 0 0 1 1.09.38 1.39 1.39 0 0 1 .4 1.06 4.5 4.5 0 0 1-.13 1l-.78 3.66h-.9zM102.35 66.94a3 3 0 0 0 .78-.14v.7a2.52 2.52 0 0 1-.46.13 2.31 2.31 0 0 1-.44.05 1.51 1.51 0 0 1-1-.32 1.23 1.23 0 0 1-.36-1 4 4 0 0 1 .1-.82l.65-3.25h-.9l.08-.4 1-.42.68-1.24h.53l-.29 1.38h1.49l-.14.69h-1.49l-.7 3.29a3.87 3.87 0 0 0-.1.72.65.65 0 0 0 .16.47.59.59 0 0 0 .41.16zM107.72 61.5a2.48 2.48 0 0 1 .65.08l-.2.82a2.39 2.39 0 0 0-.57-.07 1.51 1.51 0 0 0-.93.33 2.85 2.85 0 0 0-.76.91 4.64 4.64 0 0 0-.48 1.29l-.58 2.73h-.92l1.27-6h.76l-.12 1.11h.05a5.34 5.34 0 0 1 .65-.74 2 2 0 0 1 .54-.35 1.53 1.53 0 0 1 .64-.11zM110.43 67.68a2.08 2.08 0 0 1-1.57-.59 2.27 2.27 0 0 1-.57-1.64 4.9 4.9 0 0 1 .41-2 3.62 3.62 0 0 1 1.02-1.43 2.35 2.35 0 0 1 1.48-.52 1.87 1.87 0 0 1 1.25.36 1.26 1.26 0 0 1 .42 1 1.73 1.73 0 0 1-.9 1.54 5 5 0 0 1-2.59.56h-.18v.44a1.68 1.68 0 0 0 .34 1.11 1.28 1.28 0 0 0 1 .4 2.71 2.71 0 0 0 .71-.1 5.41 5.41 0 0 0 .9-.36v.84a5 5 0 0 1-.9.34 3.7 3.7 0 0 1-.82.05zm.76-5.39a1.45 1.45 0 0 0-1.05.51 3.34 3.34 0 0 0-.75 1.42h.07a4.45 4.45 0 0 0 1.9-.32 1 1 0 0 0 .66-.94.64.64 0 0 0-.2-.48.87.87 0 0 0-.63-.19z"/></svg>